<?xml version="1.0" encoding="UTF-8" standalone="no"?>
<svg
   version="1.1"
   id="Layer_1"
   x="0px"
   y="0px"
   viewBox="0 0 122.88 110.28"
   style="enable-background:new 0 0 122.88 110.28"
   xml:space="preserve"
   sodipodi:docname="cloud-rain-moderate.svg"
   inkscape:version="1.3 (0e150ed6c4, 2023-07-21)"
   xmlns:inkscape="http://www.inkscape.org/namespaces/inkscape"
   xmlns:sodipodi="http://sodipodi.sourceforge.net/DTD/sodipodi-0.dtd"
   xmlns="http://www.w3.org/2000/svg"
   xmlns:svg="http://www.w3.org/2000/svg"><defs
     id="defs1" /><sodipodi:namedview
     id="namedview1"
     pagecolor="#505050"
     bordercolor="#ffffff"
     borderopacity="1"
     inkscape:showpageshadow="0"
     inkscape:pageopacity="0"
     inkscape:pagecheckerboard="1"
     inkscape:deskcolor="#505050"
     inkscape:zoom="2.9158217"
     inkscape:cx="40.125911"
     inkscape:cy="80.080343"
     inkscape:window-width="3840"
     inkscape:window-height="2054"
     inkscape:window-x="-11"
     inkscape:window-y="-11"
     inkscape:window-maximized="1"
     inkscape:current-layer="Layer_1" /><g
     id="g1"><path
       d="m 23.84,71.8 c 2.01,0.25 3.43,2.09 3.18,4.1 -0.25,2.01 -2.09,3.43 -4.1,3.18 C 20.25,78.74 17.83,78.11 15.63,77.2 13.36,76.26 11.35,75.05 9.58,73.57 7.9,72.17 6.43,70.58 5.18,68.85 1.84,64.25 0.04,58.63 0,53.03 -0.04,47.37 1.72,41.74 5.52,37.18 6.75,35.7 8.2,34.34 9.86,33.14 11.79,31.74 14,30.56 16.5,29.59 18.22,28.92 20.06,28.36 22,27.91 24.2,19.17 28.89,12.44 34.92,7.77 40.56,3.4 47.35,0.85 54.34,0.18 c 6.96,-0.67 14.12,0.51 20.55,3.6 7.02,3.37 13.14,8.98 17.11,16.87 1.6,-0.25 3.2,-0.38 4.79,-0.36 6.72,0.04 13.2,2.45 18.3,7.95 1.07,1.15 2.08,2.45 3.02,3.9 3.2,4.92 4.84,11.49 4.77,17.92 -0.07,6.31 -1.77,12.59 -5.25,17.22 -2.27,3.01 -5.18,5.47 -8.67,7.42 -3.36,1.88 -7.28,3.31 -11.68,4.33 -1.98,0.45 -3.95,-0.78 -4.4,-2.76 -0.45,-1.98 0.78,-3.95 2.76,-4.4 3.71,-0.86 6.97,-2.04 9.72,-3.58 2.63,-1.47 4.78,-3.26 6.39,-5.41 2.5,-3.33 3.73,-8.04 3.78,-12.87 0.06,-5.07 -1.18,-10.16 -3.59,-13.86 -0.69,-1.06 -1.45,-2.03 -2.25,-2.89 -3.61,-3.89 -8.19,-5.59 -12.95,-5.62 -3.46,-0.02 -7.02,0.81 -10.41,2.31 -0.75,0.37 -1.5,0.77 -2.25,1.21 -2.25,1.32 -4.47,2.93 -6.74,4.78 L 72.5,30.4 c 1.67,-1.55 3.48,-2.96 5.4,-4.21 1.53,-1 3.13,-1.88 4.77,-2.65 0.66,-0.33 1.33,-0.64 2,-0.93 C 81.48,16.96 76.89,12.91 71.69,10.41 66.49,7.92 60.67,6.96 55,7.51 49.37,8.05 43.9,10.1 39.38,13.61 34.15,17.67 30.18,23.72 28.65,31.75 l -0.48,2.51 -2.5,0.44 c -2.45,0.43 -4.64,1.02 -6.56,1.77 -1.86,0.72 -3.52,1.61 -4.97,2.66 -1.16,0.84 -2.16,1.78 -3.01,2.8 -2.63,3.15 -3.85,7.1 -3.82,11.1 0.03,4.06 1.35,8.16 3.79,11.53 0.91,1.25 1.96,2.4 3.16,3.4 1.22,1.01 2.59,1.85 4.13,2.48 1.64,0.64 3.45,1.11 5.45,1.36 z m 47.79,7.97 c 2.19,10.17 8.77,15.25 8.77,20.34 0,5.09 -2.19,10.17 -8.77,10.17 -6.58,0 -8.77,-5.08 -8.77,-10.17 0,-5.08 6.57,-10.17 8.77,-20.34 z M 51.09,52.91 c 2.19,11.04 8.77,16.56 8.77,22.08 0,5.52 -2.19,11.04 -8.77,11.04 -6.58,0 -8.77,-5.52 -8.77,-11.04 0,-5.52 6.58,-11.04 8.77,-22.08 z"
       id="path1"
       sodipodi:nodetypes="csccccccccccccccccccccsccccccccsccccccccccccscccccccsssccsssc" /></g></svg>
